<svg xmlns="http://www.w3.org/2000/svg" width="295" height="113.558" viewBox="0 0 295 113.558">
  <g id="Grupo_1203708" data-name="Grupo 1203708" transform="translate(-1125 -297.289)">
    <g id="Grupo_1177670" data-name="Grupo 1177670" transform="translate(104.5 26.847)">
      <rect id="Rect치ngulo_415938" data-name="Rect치ngulo 415938" width="295" height="50.937" transform="translate(1020.5 308.063)" fill="#103d47"/>
      <g id="Grupo_1177160" data-name="Grupo 1177160" transform="translate(1062.32 279.063)">
        <rect id="Rect치ngulo_415940" data-name="Rect치ngulo 415940" width="216.41" height="104.937" transform="translate(-2.82)" fill="#1d7083"/>
      </g>
    </g>
    <g id="art-school_18254181" transform="translate(1226.54 297.286)">
      <g id="Grupo_1203707" data-name="Grupo 1203707" transform="translate(5.234 1.776)">
        <path id="Trazado_1041664" data-name="Trazado 1041664" d="M177.064,402.25l-.164,22.568h-6.98l.2-22.568Z" transform="translate(-134.775 -314.808)" fill="#986b54" fill-rule="evenodd"/>
        <path id="Trazado_1041665" data-name="Trazado 1041665" d="M82.391,403.93h7.2l-6.463,22.195-7.279-.038Z" transform="translate(-61.569 -316.115)" fill="#986b54" fill-rule="evenodd"/>
        <path id="Trazado_1041666" data-name="Trazado 1041666" d="M241.442,403.93h-7.2l6.463,22.195,7.279-.038Z" transform="translate(-184.829 -316.115)" fill="#986b54" fill-rule="evenodd"/>
        <path id="Trazado_1041667" data-name="Trazado 1041667" d="M69.1,380.21h51.864v3.746a3.754,3.754,0,0,1-3.746,3.746H72.848a3.754,3.754,0,0,1-3.746-3.746V380.21Z" transform="translate(-56.316 -297.656)" fill="#fea832" fill-rule="evenodd"/>
        <path id="Trazado_1041668" data-name="Trazado 1041668" d="M11.46,146.12H88.9v53.847H11.46Z" transform="translate(-11.46 -115.486)" fill="#edf6ff" fill-rule="evenodd"/>
        <path id="Trazado_1041669" data-name="Trazado 1041669" d="M82.224,181.439c4.307-4.644,8.794-4,13.181-3.081,11.955,2.5,7.732.208,15.042-4.979,10.118-4.3,15.177,9.16,15.177,17.094a24.2,24.2,0,0,1-24.2,24.2C84.823,214.675,69.373,195.3,82.224,181.439Z" transform="translate(-62.823 -136.055)" fill="#2f5274" fill-rule="evenodd"/>
        <path id="Trazado_1041670" data-name="Trazado 1041670" d="M98.13,254.558a3.195,3.195,0,1,1,3.192,3.2A3.2,3.2,0,0,1,98.13,254.558Z" transform="translate(-78.907 -197.384)" fill="#8bd7fa" fill-rule="evenodd"/>
        <path id="Trazado_1041671" data-name="Trazado 1041671" d="M126.36,294.478a3.2,3.2,0,1,1,3.2,3.2A3.2,3.2,0,0,1,126.36,294.478Z" transform="translate(-100.876 -228.45)" fill="#093" fill-rule="evenodd"/>
        <path id="Trazado_1041672" data-name="Trazado 1041672" d="M170.05,313.408a3.2,3.2,0,1,1,3.2,3.2A3.2,3.2,0,0,1,170.05,313.408Z" transform="translate(-134.876 -243.182)" fill="#ffd400" fill-rule="evenodd"/>
        <path id="Trazado_1041673" data-name="Trazado 1041673" d="M248.367,254.558a3.2,3.2,0,1,0-3.2,3.2A3.2,3.2,0,0,0,248.367,254.558Z" transform="translate(-190.844 -197.384)" fill="#0593fc" fill-rule="evenodd"/>
        <path id="Trazado_1041674" data-name="Trazado 1041674" d="M220.13,294.478a3.195,3.195,0,1,0-3.2,3.2A3.194,3.194,0,0,0,220.13,294.478Z" transform="translate(-168.875 -228.45)" fill="#ff4646" fill-rule="evenodd"/>
        <path id="Trazado_1041675" data-name="Trazado 1041675" d="M169.5,233.281a4.653,4.653,0,1,1,4.651,4.655A4.65,4.65,0,0,1,169.5,233.281Z" transform="translate(-134.448 -179.696)" fill="#edf6ff" fill-rule="evenodd"/>
        <path id="Trazado_1041676" data-name="Trazado 1041676" d="M240.607,204.978a3.2,3.2,0,1,0-3.2,3.2A3.2,3.2,0,0,0,240.607,204.978Z" transform="translate(-184.805 -158.801)" fill="#70da40" fill-rule="evenodd"/>
        <path id="Trazado_1041677" data-name="Trazado 1041677" d="M398.378,86.354c-7.128,7.725-11.394,19.533-17.471,31.648l-4.168,7.226,2.227,1.282,2.222,1.289,4.174-7.219c7.45-11.327,15.543-20.92,18.673-30.958a3.357,3.357,0,0,0-5.658-3.267Z" transform="translate(-295.723 -68.138)" fill="#2f5274" fill-rule="evenodd"/>
        <path id="Trazado_1041678" data-name="Trazado 1041678" d="M380.908,232.82l-4.168,7.226,2.227,1.28,2.222,1.289,4.174-7.219Z" transform="translate(-295.723 -182.956)" fill="#0593fc" fill-rule="evenodd"/>
        <path id="Trazado_1041679" data-name="Trazado 1041679" d="M332.839,267.968,328.39,265.4c-13.993.135-4.1,12.815-13.78,14.621C324.912,287.965,340.209,277.073,332.839,267.968Z" transform="translate(-247.373 -208.31)" fill="#eabc6b" fill-rule="evenodd"/>
        <path id="Trazado_1041680" data-name="Trazado 1041680" d="M104.76,66.44h34.187V84.113a56.032,56.032,0,0,1-34.185,0V66.44Z" transform="translate(-84.067 -53.478)" fill="#223c55" fill-rule="evenodd"/>
        <path id="Trazado_1041681" data-name="Trazado 1041681" d="M69.893,8l31.9,11.241-31.9,11.278L37.99,19.241Z" transform="translate(-32.106 -8)" fill="#2f5274" fill-rule="evenodd"/>
        <path id="Trazado_1041682" data-name="Trazado 1041682" d="M46.471,19.241,74.134,9.495,69.893,8,37.99,19.241l4.649,1.643,3.589,1.269L52.8,24.477l17.094,6.042,4.241-1.5L52.8,21.481Z" transform="translate(-32.106 -8)" fill="#2a4a68" fill-rule="evenodd"/>
        <path id="Trazado_1041683" data-name="Trazado 1041683" d="M108.941,96.447V83.767L104.76,82.29V96.447a56.54,56.54,0,0,0,19.161,2.63A57.042,57.042,0,0,1,108.941,96.447Z" transform="translate(-84.067 -65.813)" fill="#1f364d" fill-rule="evenodd"/>
        <path id="Trazado_1041684" data-name="Trazado 1041684" d="M11.46,146.12h6.767v53.847H11.46Z" transform="translate(-11.46 -115.486)" fill="#d5dde6" fill-rule="evenodd"/>
        <path id="Trazado_1041685" data-name="Trazado 1041685" d="M171.026,233.281a4.657,4.657,0,0,1,3.888-4.589,4.5,4.5,0,0,0-.763-.062,4.653,4.653,0,0,0,0,9.306,4.5,4.5,0,0,0,.763-.067A4.648,4.648,0,0,1,171.026,233.281Z" transform="translate(-134.448 -179.696)" fill="#d5dde6" fill-rule="evenodd"/>
        <path id="Trazado_1041686" data-name="Trazado 1041686" d="M99.332,254.558a3.208,3.208,0,0,1,2.593-3.143,3.2,3.2,0,1,0,0,6.286A3.2,3.2,0,0,1,99.332,254.558Z" transform="translate(-78.907 -197.384)" fill="#7dc2e1" fill-rule="evenodd"/>
        <path id="Trazado_1041687" data-name="Trazado 1041687" d="M127.569,294.478a3.2,3.2,0,0,1,2.593-3.143,3.371,3.371,0,0,0-.6-.055,3.2,3.2,0,1,0,0,6.4,3.16,3.16,0,0,0,.6-.062A3.193,3.193,0,0,1,127.569,294.478Z" transform="translate(-100.876 -228.45)" fill="#008a2e" fill-rule="evenodd"/>
        <path id="Trazado_1041688" data-name="Trazado 1041688" d="M171.259,313.408a3.2,3.2,0,0,1,2.593-3.143,3.2,3.2,0,1,0-.6,6.341,2.7,2.7,0,0,0,.6-.062A3.2,3.2,0,0,1,171.259,313.408Z" transform="translate(-134.876 -243.182)" fill="#e6bf00" fill-rule="evenodd"/>
        <path id="Trazado_1041689" data-name="Trazado 1041689" d="M214.952,294.478a3.2,3.2,0,0,1,2.593-3.143,3.371,3.371,0,0,0-.6-.055,3.2,3.2,0,0,0,0,6.4,3.16,3.16,0,0,0,.6-.062A3.193,3.193,0,0,1,214.952,294.478Z" transform="translate(-168.883 -228.45)" fill="#e63f3f" fill-rule="evenodd"/>
        <path id="Trazado_1041690" data-name="Trazado 1041690" d="M243.179,254.558a3.208,3.208,0,0,1,2.593-3.143,3.2,3.2,0,1,0,0,6.286,3.2,3.2,0,0,1-2.593-3.143Z" transform="translate(-190.844 -197.384)" fill="#0584e3" fill-rule="evenodd"/>
        <path id="Trazado_1041691" data-name="Trazado 1041691" d="M235.419,204.978a3.2,3.2,0,0,1,2.593-3.143,3.2,3.2,0,1,0-.6,6.341,2.7,2.7,0,0,0,.6-.062A3.2,3.2,0,0,1,235.419,204.978Z" transform="translate(-184.805 -158.801)" fill="#65c43a" fill-rule="evenodd"/>
        <path id="Trazado_1041692" data-name="Trazado 1041692" d="M75.454,394.475a3.758,3.758,0,0,1-3.746-3.746V388.91H69.1v1.819a3.757,3.757,0,0,0,3.748,3.746Z" transform="translate(-56.316 -304.426)" fill="#e5972d" fill-rule="evenodd"/>
        <path id="Trazado_1041693" data-name="Trazado 1041693" d="M81.732,414,75.85,433.924l7.279.038.007-.013-4.675-.024L84.338,414Z" transform="translate(-61.569 -323.952)" fill="#89604c" fill-rule="evenodd"/>
        <path id="Trazado_1041694" data-name="Trazado 1041694" d="M170.1,414l-.175,19.961h2.6L172.7,414Z" transform="translate(-134.775 -323.952)" fill="#89604c" fill-rule="evenodd"/>
        <path id="Trazado_1041695" data-name="Trazado 1041695" d="M237.19,414,243,433.961l2.6-.013L239.8,414Z" transform="translate(-187.124 -323.952)" fill="#89604c" fill-rule="evenodd"/>
        <path id="Trazado_1041696" data-name="Trazado 1041696" d="M317.67,280.021c7.3-1.366,3.467-8.916,7.153-12.6a7.039,7.039,0,0,1,3.955-1.805l-.379-.213a15.184,15.184,0,0,0-3.575.4c-8.6,2.2-1.513,12.6-10.2,14.219a13.011,13.011,0,0,0,9.537,2.662A12.993,12.993,0,0,1,317.67,280.021Z" transform="translate(-247.381 -208.31)" fill="#d3a960" fill-rule="evenodd"/>
        <path id="Trazado_1041697" data-name="Trazado 1041697" d="M378.162,240.862l4.168-7.219-1.422-.823-4.168,7.226.377.213Z" transform="translate(-295.723 -182.956)" fill="#0584e3" fill-rule="evenodd"/>
        <path id="Trazado_1041698" data-name="Trazado 1041698" d="M398.286,118c6.077-12.114,10.338-23.921,17.464-31.648a3.351,3.351,0,0,1,1.031-.77,3.225,3.225,0,0,0-3.79.77C405.862,94.075,401.6,105.883,395.52,118l1.422.823.652.373Z" transform="translate(-310.338 -68.134)" fill="#2a4a68" fill-rule="evenodd"/>
      </g>
      <path id="Trazado_1041699" data-name="Trazado 1041699" d="M61.9,38.126a9.912,9.912,0,0,0-9.737-.657,1.879,1.879,0,0,0-.333.186,24.192,24.192,0,0,0-4.571,4.168c-.951,1.082-1.2,1.342-1.941,1.451-1.116.162-3.183-.106-7.131-.934-3.837-.8-9.633-2.014-14.854,3.617A18.265,18.265,0,0,0,19.8,66.431,27.291,27.291,0,0,0,43.835,82.17,26,26,0,0,0,69.808,56.191c0-6.221-2.772-14.665-7.907-18.065Zm-18.067,40.5A23.6,23.6,0,0,1,23.042,65.012a14.678,14.678,0,0,1,2.89-16.643,8.861,8.861,0,0,1,6.927-3.163,22.7,22.7,0,0,1,4.6.608c8.5,1.781,9.861,1.313,12.463-1.643a20.648,20.648,0,0,1,3.8-3.5,6.309,6.309,0,0,1,6.221.421c3.955,2.617,6.317,9.737,6.317,15.106a22.453,22.453,0,0,1-22.426,22.43ZM32.624,58.95a4.969,4.969,0,1,0-4.973,4.973A4.975,4.975,0,0,0,32.624,58.95Zm-4.973,1.426a1.424,1.424,0,1,1,1.426-1.426A1.427,1.427,0,0,1,27.651,60.376Zm6.268,2.46A4.969,4.969,0,1,0,38.892,67.8a4.972,4.972,0,0,0-4.973-4.966Zm0,6.394A1.424,1.424,0,1,1,35.347,67.8,1.427,1.427,0,0,1,33.919,69.23Zm9.688-2.2A4.969,4.969,0,1,0,48.58,72a4.972,4.972,0,0,0-4.973-4.966Zm0,6.394A1.424,1.424,0,1,1,45.033,72,1.427,1.427,0,0,1,43.607,73.429ZM54.592,58.95a4.969,4.969,0,1,0,4.973-4.966,4.979,4.979,0,0,0-4.973,4.966Zm6.392,0a1.425,1.425,0,1,1-1.422-1.422A1.424,1.424,0,0,1,60.985,58.95ZM53.3,62.836A4.969,4.969,0,1,0,58.27,67.8,4.972,4.972,0,0,0,53.3,62.836Zm0,6.394A1.424,1.424,0,1,1,54.726,67.8,1.427,1.427,0,0,1,53.3,69.23ZM44.94,61.792a6.425,6.425,0,1,0-6.425-6.425A6.434,6.434,0,0,0,44.94,61.792Zm0-9.3a2.879,2.879,0,1,1-2.879,2.879A2.881,2.881,0,0,1,44.94,52.487Zm7.929-4.533a4.969,4.969,0,1,0,4.973-4.966A4.979,4.979,0,0,0,52.869,47.954Zm6.394,0a1.424,1.424,0,1,1-1.422-1.422A1.424,1.424,0,0,1,59.263,47.954Zm53.639-30.1a5.021,5.021,0,0,0-6.312.938c-5.465,5.922-9.282,14.115-13.323,22.789-1.4,3.005-2.848,6.113-4.407,9.22l-3.651,6.323c-.262.016-.515.033-.761.058V32.413a1.771,1.771,0,0,0-1.772-1.772H61.892V19.506l13.631-4.817a1.773,1.773,0,0,0,0-3.345L43.611.1a1.759,1.759,0,0,0-1.178,0l-31.9,11.241a1.773,1.773,0,0,0,0,3.345l5.263,1.861v9.513a1.772,1.772,0,1,0,3.544,0V17.8l4.822,1.706V30.641H5.232A1.771,1.771,0,0,0,3.46,32.413V86.262a1.771,1.771,0,0,0,1.772,1.772H16.246v.044a5.528,5.528,0,0,0,5.52,5.52h1.262l-5.208,17.648a1.771,1.771,0,0,0,1.69,2.273l7.275.038H26.8a1.773,1.773,0,0,0,1.7-1.278L33.937,93.6h4.828l-.16,18.172a1.776,1.776,0,0,0,1.774,1.79h6.984a1.772,1.772,0,0,0,1.772-1.759l.138-18.2h4.7l5.438,18.684a1.77,1.77,0,0,0,1.7,1.278h.009l7.282-.038a1.771,1.771,0,0,0,1.69-2.273L64.886,93.6h1.255a5.528,5.528,0,0,0,5.52-5.52v-.044H82.676a1.771,1.771,0,0,0,1.772-1.772V77.479a14.953,14.953,0,0,0,6.858-3.9c3.518-3.6,4.052-8.293,1.506-12.243l3.569-6.181c1.912-2.9,3.875-5.7,5.776-8.413,5.5-7.843,10.686-15.248,13.088-22.949a5.019,5.019,0,0,0-2.342-5.935ZM90.055,59.012l-1.382-.8,2.4-4.148,1.382.8ZM43.024,3.655,69.6,13.019l-26.58,9.4L18.232,13.651c-.051-.02-.1-.04-.155-.055l-1.628-.574Zm-.592,22.312a1.757,1.757,0,0,0,1.18,0L58.343,20.76V31.093a54.431,54.431,0,0,1-30.636,0V20.762Zm-16.963,84.04-3.578-.018L26.726,93.6h3.518Zm20.132.007H42.163L42.307,93.6h3.416Zm20.423-.027-3.584.018L57.664,93.6h3.524Zm2.092-21.909a1.975,1.975,0,0,1-1.974,1.974H21.767a1.975,1.975,0,0,1-1.974-1.974v-.044H68.115ZM80.9,84.488H7v-50.3H25.673a58.67,58.67,0,0,0,17.335,2.657,59.012,59.012,0,0,0,17.371-2.657H80.9v23.8c-4.205,1.686-4.68,5.423-5.048,8.344-.413,3.267-.741,4.862-3.708,5.414a1.773,1.773,0,0,0-.759,3.147A14.736,14.736,0,0,0,80.476,78c.142,0,.284-.007.428-.011ZM88.771,71.1a11.546,11.546,0,0,1-6.261,3.2,1.813,1.813,0,0,0-.224.035,11.443,11.443,0,0,1-5.866-.625c2.309-1.81,2.67-4.673,2.954-6.931.359-2.841.625-4.933,3.6-5.756a1.8,1.8,0,0,0,.291-.075,13.031,13.031,0,0,1,2.533-.3l3.726,2.151c2.888,3.833.452,7.071-.75,8.3ZM111.86,22.731C109.624,29.9,104.587,37.09,99.253,44.7c-1.619,2.311-3.283,4.693-4.933,7.151l-1.575-.909c1.309-2.662,2.542-5.3,3.735-7.86C100.4,34.664,104.106,26.715,109.2,21.2a1.584,1.584,0,0,1,2.664,1.533Z" transform="translate(0 0)"/>
    </g>
  </g>
</svg>
