<svg xmlns="http://www.w3.org/2000/svg" width="295" height="95.787" viewBox="0 0 295 95.787">
  <g id="Grupo_1203709" data-name="Grupo 1203709" transform="translate(-1125 -298.213)">
    <g id="Grupo_1177670" data-name="Grupo 1177670" transform="translate(104.5 24.937)">
      <rect id="Rect치ngulo_415938" data-name="Rect치ngulo 415938" width="295" height="50.937" transform="translate(1020.5 299.83)" fill="#103d47"/>
      <g id="Grupo_1177160" data-name="Grupo 1177160" transform="translate(1059.5 279.063)">
        <rect id="Rect치ngulo_415940" data-name="Rect치ngulo 415940" width="216.41" height="89.607" fill="#1d7083"/>
      </g>
    </g>
    <g id="surface1" transform="translate(1224.641 298.213)">
      <path id="Trazado_1041700" data-name="Trazado 1041700" d="M98.113,99.5H15.1a4.789,4.789,0,0,0-4.79,4.79v47.894H102.9V104.29A4.789,4.789,0,0,0,98.113,99.5Zm0,0" transform="translate(-8.353 -83.535)" fill="#4398d1"/>
      <path id="Trazado_1041701" data-name="Trazado 1041701" d="M198.358,99.5H182.394l-52.683,52.683h73.437V104.29A4.789,4.789,0,0,0,198.358,99.5Zm0,0" transform="translate(-108.598 -83.535)" fill="#3e8cc7"/>
      <path id="Trazado_1041702" data-name="Trazado 1041702" d="M219.263,501.919l-4.31-14.368H198.989l-4.311,14.368H189.41v3.193h35.122v-3.193Zm0,0" transform="translate(-158.718 -409.325)" fill="#dadddf"/>
      <path id="Trazado_1041703" data-name="Trazado 1041703" d="M10.309,427.852v4.789a4.789,4.789,0,0,0,4.79,4.79H98.113a4.789,4.789,0,0,0,4.79-4.79v-4.789Zm0,0" transform="translate(-8.353 -359.204)" fill="#dadddf"/>
      <path id="Trazado_1041704" data-name="Trazado 1041704" d="M150.2,19.528V13.621a3.673,3.673,0,0,0-3.672-3.672h-5.907a4.789,4.789,0,1,1-9.579,0H119.868v.118a4.653,4.653,0,0,1-4.636,4.671h-.139a4.789,4.789,0,0,1-4.8-4.775V9.949H99.115v.132a4.656,4.656,0,0,1-4.654,4.657H94.34a4.788,4.788,0,0,1-4.8-4.775V9.949H83.629a3.673,3.673,0,0,0-3.672,3.671v5.907a4.789,4.789,0,1,1,0,9.579v9.579a4.789,4.789,0,1,1,0,9.579v9.579a4.789,4.789,0,1,1,0,9.579v4.79H150.2v-4.79a4.789,4.789,0,0,1,0-9.579V48.264a4.789,4.789,0,0,1,0-9.579V29.106a4.789,4.789,0,0,1,0-9.579Zm0,0" transform="translate(-66.826 -8.353)" fill="#fda72f"/>
      <path id="Trazado_1041705" data-name="Trazado 1041705" d="M129.711,80.115h62.261v-4.79a4.789,4.789,0,0,1,0-9.579V56.168a4.789,4.789,0,0,1,0-9.579V37.01a4.789,4.789,0,0,1,0-9.579V21.525a3.634,3.634,0,0,0-.716-2.162Zm0,0" transform="translate(-108.598 -16.257)" fill="#ff8a3d"/>
      <path id="Trazado_1041706" data-name="Trazado 1041706" d="M149.609,79.6H197.5v51.087H149.609Zm0,0" transform="translate(-125.303 -66.826)" fill="#87ced9"/>
      <path id="Trazado_1041707" data-name="Trazado 1041707" d="M149.609,248.38v15.964H197.5V248.38H165.573l-7.982-9.579Zm0,0" transform="translate(-125.303 -200.486)" fill="#71c4d1"/>
      <path id="Trazado_1041708" data-name="Trazado 1041708" d="M149.609,79.6H197.5v3.193H149.609Zm0,0" transform="translate(-125.303 -66.826)" fill="#71c4d1"/>
      <path id="Trazado_1041709" data-name="Trazado 1041709" d="M149.609,79.6H152.8v47.894h-3.193Zm0,0" transform="translate(-125.303 -66.826)" fill="#71c4d1"/>
      <path id="Trazado_1041710" data-name="Trazado 1041710" d="M239.16,308.449h19.157v12.772H239.16Zm0,0" transform="translate(-200.486 -258.959)" fill="#3e8cc7"/>
      <path id="Trazado_1041711" data-name="Trazado 1041711" d="M259.059,348.25h11.175v6.386H259.059Zm0,0" transform="translate(-217.192 -292.374)" fill="#f2a46f"/>
      <path id="Trazado_1041712" data-name="Trazado 1041712" d="M333.5,258.7v14.368h-4.789v6.386H333.5a6.386,6.386,0,0,0,6.386-6.386v-7.982A6.386,6.386,0,0,0,333.5,258.7Zm0,0" transform="translate(-275.668 -217.191)" fill="#4398d1"/>
      <path id="Trazado_1041713" data-name="Trazado 1041713" d="M205.745,273.067V258.7a6.386,6.386,0,0,0-6.386,6.386v7.982a6.386,6.386,0,0,0,6.386,6.385h4.789v-6.385Zm0,0" transform="translate(-167.071 -217.191)" fill="#4398d1"/>
      <path id="Trazado_1041714" data-name="Trazado 1041714" d="M270.6,348.25h-1.6v6.386h7.982A6.386,6.386,0,0,0,270.6,348.25Zm0,0" transform="translate(-225.545 -292.374)" fill="#ffb782"/>
      <path id="Trazado_1041715" data-name="Trazado 1041715" d="M253.528,191.873V179.1H240.756v6.386a6.372,6.372,0,0,0,4.79,6.16v.225H239.16v7.982h19.157v-7.982Zm0,0" transform="translate(-200.486 -150.366)" fill="#ffb782"/>
      <path id="Trazado_1041716" data-name="Trazado 1041716" d="M253.528,191.873V179.1H240.756v6.386a6.372,6.372,0,0,0,4.79,6.16v.225H239.16v7.982h19.157v-7.982Zm0,0" transform="translate(-200.486 -150.366)" fill="#ffb782"/>
      <path id="Trazado_1041717" data-name="Trazado 1041717" d="M283.75,183.887v7.982h3.193V179.1h-7.982A4.79,4.79,0,0,1,283.75,183.887Zm0,0" transform="translate(-233.901 -150.362)" fill="#f2a46f"/>
      <path id="Trazado_1041718" data-name="Trazado 1041718" d="M261.881,149.731V133.766a4.79,4.79,0,0,0-4.79-4.79h-7.982v-.8a8.78,8.78,0,0,1,8.781-8.781,10.377,10.377,0,0,1,10.376,10.377v13.57A6.386,6.386,0,0,1,261.881,149.731Zm0,0" transform="translate(-208.838 -100.241)" fill="#3e8cc7"/>
      <path id="Trazado_1041719" data-name="Trazado 1041719" d="M258.99,492.34l-1.437-4.789H241.589l-1.437,4.789Zm0,0" transform="translate(-201.319 -409.325)" fill="#c1c7c9"/>
      <path id="Trazado_1041720" data-name="Trazado 1041720" d="M89.761,89.551H86.567v3.193h3.193a3.192,3.192,0,0,1,3.193,3.193v46.3H3.552v-46.3a3.192,3.192,0,0,1,3.193-3.193h1.6V89.551h-1.6A6.386,6.386,0,0,0,.359,95.937v52.682a6.386,6.386,0,0,0,6.386,6.386H38.125l-3.831,12.771h-3.6v3.193H65.814v-3.193h-3.6L58.38,155.005h31.38a6.386,6.386,0,0,0,6.386-6.386V95.937A6.386,6.386,0,0,0,89.761,89.551ZM58.879,167.776H37.627l3.831-12.771H55.047Zm34.074-19.157a3.191,3.191,0,0,1-3.193,3.193H6.745a3.192,3.192,0,0,1-3.193-3.193v-3.193h89.4Zm0,0" transform="translate(0 -75.183)"/>
      <path id="Trazado_1041721" data-name="Trazado 1041721" d="M71.6,57.472a1.6,1.6,0,0,0-1.6,1.6v4.79H73.2v-3.4a6.386,6.386,0,0,0,0-12.366V41.305a6.386,6.386,0,0,0,0-12.366V22.148a6.386,6.386,0,0,0,0-12.366V5.268a2.075,2.075,0,0,1,2.075-2.076h4.509A6.464,6.464,0,0,0,86.1,7.982a6.246,6.246,0,0,0,6.066-4.79h8.378a6.462,6.462,0,0,0,6.319,4.79,6.228,6.228,0,0,0,6.066-4.79H121.3a6.386,6.386,0,0,0,12.366,0h4.515a2.084,2.084,0,0,1,2.075,2.076V9.781a6.386,6.386,0,0,0,0,12.366v6.791a6.386,6.386,0,0,0,0,12.366V48.1a6.386,6.386,0,0,0,0,12.366v3.4h3.193V59.068a1.6,1.6,0,0,0-1.6-1.6,3.193,3.193,0,0,1,0-6.386,1.6,1.6,0,0,0,1.6-1.6V39.911a1.6,1.6,0,0,0-1.6-1.6,3.193,3.193,0,0,1,0-6.386,1.6,1.6,0,0,0,1.6-1.6V20.754a1.6,1.6,0,0,0-1.6-1.6,3.193,3.193,0,0,1,0-6.386,1.6,1.6,0,0,0,1.6-1.6V5.268A5.279,5.279,0,0,0,138.177,0H132.27a1.6,1.6,0,0,0-1.6,1.6,3.193,3.193,0,1,1-6.386,0,1.6,1.6,0,0,0-1.6-1.6H111.515a1.664,1.664,0,0,0-1.13.528,1.734,1.734,0,0,0-.466,1.191,3.035,3.035,0,0,1-.893,2.172,3.121,3.121,0,0,1-2.286.9A3.206,3.206,0,0,1,103.533,1.6a1.6,1.6,0,0,0-1.6-1.6H90.762a1.712,1.712,0,0,0-1.6,1.729,3.091,3.091,0,0,1-3.119,3.062h-.058A3.2,3.2,0,0,1,82.78,1.6a1.6,1.6,0,0,0-1.6-1.6H75.276a5.279,5.279,0,0,0-5.268,5.268v5.906a1.6,1.6,0,0,0,1.6,1.6,3.193,3.193,0,0,1,0,6.386,1.6,1.6,0,0,0-1.6,1.6v9.579a1.6,1.6,0,0,0,1.6,1.6,3.193,3.193,0,0,1,0,6.386,1.6,1.6,0,0,0-1.6,1.6V49.49a1.6,1.6,0,0,0,1.6,1.6,3.193,3.193,0,1,1,0,6.385Zm0,0" transform="translate(-58.474 0)"/>
      <path id="Trazado_1041722" data-name="Trazado 1041722" d="M190.746,122.332V71.245a1.6,1.6,0,0,0-1.6-1.6H141.256a1.6,1.6,0,0,0-1.6,1.6v51.087h3.193V72.842h44.7v49.49Zm0,0" transform="translate(-116.95 -58.473)"/>
      <path id="Trazado_1041723" data-name="Trazado 1041723" d="M189.41,139.782v7.982a7.991,7.991,0,0,0,7.982,7.982h19.157a7.991,7.991,0,0,0,7.982-7.982v-7.982a7.984,7.984,0,0,0-4.79-7.312V121.422a11.986,11.986,0,0,0-11.973-11.973,10.389,10.389,0,0,0-10.376,10.377v7.184a7.9,7.9,0,0,0,1.638,4.789h-1.638A7.991,7.991,0,0,0,189.41,139.782Zm7.982,12.771a4.789,4.789,0,0,1-4.79-4.789v-7.982a4.8,4.8,0,0,1,3.193-4.516v12.5a1.6,1.6,0,0,0,1.6,1.6h6.385a4.8,4.8,0,0,1,4.516,3.193h-10.9Zm20.754-4.789v-8.032a7.9,7.9,0,0,0,1.482-3.6,4.78,4.78,0,0,1,1.712,3.655v7.982a4.789,4.789,0,0,1-4.79,4.789H211.6a7.9,7.9,0,0,0-1.477-3.193h6.425A1.6,1.6,0,0,0,218.146,147.764Zm-10.377-35.122a8.791,8.791,0,0,1,8.781,8.78v13.57a4.8,4.8,0,0,1-3.193,4.516V125.413a6.386,6.386,0,0,0-6.385-6.386h-6.343A7.2,7.2,0,0,1,207.769,112.642Zm-7.184,9.579h6.386a3.192,3.192,0,0,1,3.193,3.193v1.6a4.789,4.789,0,0,1-9.579,0Zm-1.6,12.771h11.175v4.79H198.989Zm0,7.982h15.965v3.193H198.989Zm0,0" transform="translate(-158.718 -91.888)"/>
    </g>
  </g>
</svg>
